<?xml version="1.0" encoding="utf-8"?>
<!-- Generator: Adobe Illustrator 26.0.3, SVG Export Plug-In . SVG Version: 6.00 Build 0)  -->
<svg version="1.0" id="katman_1" xmlns="http://www.w3.org/2000/svg" xmlns:xlink="http://www.w3.org/1999/xlink" x="0px" y="0px"
	 viewBox="0 0 779.1 565.2" style="enable-background:new 0 0 779.1 565.2;" xml:space="preserve">
<style type="text/css">
	.st0{fill:#1D1D1B;}
</style>
<path class="st0" d="M452,292.8h-42.1V166.5H452v42.1l25.7-42.1h47.1L482.7,230l42.1,63.5h-47.1L452,251.4V292.8z M693.3,199.3h23.6
	v-32.8h-89.2v32.8h23.6v93.5h42.1V199.3L693.3,199.3z M618.4,260h-47.1v-14.3h37.1v-32.1h-37.1v-14.3h47.1v-32.8h-89.2v126.4h89.2
	V260z M151.5,396.3h-47.1v-94.2H62.2v126.4h89.2V396.3z M250,396.3h-47.1V382H240v-32.8h-37.1v-14.3H250v-32.8h-89.2v126.4H250
	V396.3L250,396.3z M716.9,396.3h-47.1V382h37.1v-32.8h-37.1v-14.3h47.1v-32.8h-89.2v126.4h89.2V396.3z M306.4,230
	c0,36.4-29.3,65.7-65.7,65.7c-36.4,0-65.7-29.3-65.7-65.7c0-36.4,29.3-65.7,65.7-65.7C277.1,164.3,306.4,193.6,306.4,230z
	 M264.3,230c0-12.8-10.7-23.6-23.6-23.6s-23.6,10.7-23.6,23.6c0,12.9,10.7,23.6,23.6,23.6S264.3,242.8,264.3,230z M576.2,374.9
	c0,7.9-6.4,14.3-14.3,14.3c-7.9,0-14.3-6.4-14.3-14.3v-72.8h-42.1v72.8c0,30.7,25,56.4,56.4,56.4c30.7,0,56.4-25,56.4-56.4v-72.8
	h-42.1V374.9z M400.6,243.5c-4.3,5.7-15.7,9.3-23.6,9.3c-12.8,0-23.6-10.7-23.6-23.6s10.7-23.6,23.6-23.6c7.9,0,19.3,3.6,23.6,9.3
	v-48.5c-5.7-1.4-17.1-2.9-23.6-2.9c-36.4,0-65.7,29.3-65.7,65.7s29.3,65.7,65.7,65.7c6.4,0,17.1-0.7,23.6-2.9V243.5L400.6,243.5z
	 M170,206.4c0,17.8-9.3,33.6-25,36.4l32.1,50h-47.1l-25.7-42.1v42.1H62.2V166.5h65.7C151.5,166.5,170,182.9,170,206.4z M127.9,213.6
	c0-7.9-6.4-14.3-14.3-14.3h-9.3v27.8h9.3C121.5,227.1,127.9,221.4,127.9,213.6z M334.2,409.9h-32.8l-4.3,18.6H255l42.1-126.4h42.1
	l42.1,126.4h-42.1L334.2,409.9L334.2,409.9z M326.4,377l-8.6-35.7l-8.6,35.7H326.4L326.4,377z M497.7,354.2H437v30.7h19.3
	c-2.1,4.3-6.4,11.4-19.3,11.4c-14.3,0-25.7-12.1-25.7-27.8c0-17.1,12.8-27.1,25.7-27.8c14.3-0.7,20,5,24.3,9.3l29.3-27.8
	c-14.3-14.3-30.7-21.4-53.5-21.4c-36.4,0-65.7,29.3-65.7,65.7S400.6,432,437,432c37.8,0,60.7-27.1,60.7-60.7V354.2z"/>
</svg>
